<mxfile host="Electron" agent="Mozilla/5.0 (Windows NT 10.0; Win64; x64) AppleWebKit/537.36 (KHTML, like Gecko) draw.io/26.0.16 Chrome/132.0.6834.196 Electron/34.2.0 Safari/537.36" version="26.0.16">
  <diagram id="UQZ_05zFaP40Vf3ZcBHr" name="イベント">
    <mxGraphModel dx="1885" dy="2489" grid="1" gridSize="10" guides="1" tooltips="1" connect="1" arrows="1" fold="1" page="1" pageScale="1" pageWidth="827" pageHeight="1169" math="0" shadow="0">
      <root>
        <mxCell id="0" />
        <mxCell id="1" parent="0" />
        <mxCell id="LZvWHC5vLiDEv4ikFwLN-2" value="" style="edgeStyle=none;orthogonalLoop=1;jettySize=auto;html=1;rounded=0;startArrow=baseDash;startFill=0;endArrow=baseDash;endFill=0;fontSize=6;" parent="1" edge="1">
          <mxGeometry width="80" relative="1" as="geometry">
            <mxPoint x="240" y="80" as="sourcePoint" />
            <mxPoint x="280" y="80" as="targetPoint" />
            <Array as="points" />
          </mxGeometry>
        </mxCell>
        <mxCell id="LZvWHC5vLiDEv4ikFwLN-8" value="2016" style="text;strokeColor=none;align=center;fillColor=none;html=1;verticalAlign=middle;whiteSpace=wrap;rounded=0;fontSize=6;" parent="1" vertex="1">
          <mxGeometry x="240" y="60" width="40" height="20" as="geometry" />
        </mxCell>
        <mxCell id="LZvWHC5vLiDEv4ikFwLN-19" value="" style="edgeStyle=none;orthogonalLoop=1;jettySize=auto;html=1;rounded=0;startArrow=baseDash;startFill=0;endArrow=baseDash;endFill=0;fontSize=6;" parent="1" edge="1">
          <mxGeometry width="80" relative="1" as="geometry">
            <mxPoint x="280" y="80" as="sourcePoint" />
            <mxPoint x="320" y="80" as="targetPoint" />
            <Array as="points" />
          </mxGeometry>
        </mxCell>
        <mxCell id="LZvWHC5vLiDEv4ikFwLN-21" value="2017" style="text;strokeColor=none;align=center;fillColor=none;html=1;verticalAlign=middle;whiteSpace=wrap;rounded=0;fontSize=6;" parent="1" vertex="1">
          <mxGeometry x="280" y="60" width="40" height="20" as="geometry" />
        </mxCell>
        <mxCell id="LZvWHC5vLiDEv4ikFwLN-22" value="2018" style="text;strokeColor=none;align=center;fillColor=none;html=1;verticalAlign=middle;whiteSpace=wrap;rounded=0;fontSize=6;" parent="1" vertex="1">
          <mxGeometry x="320" y="60" width="40" height="20" as="geometry" />
        </mxCell>
        <mxCell id="LZvWHC5vLiDEv4ikFwLN-23" value="2019" style="text;strokeColor=none;align=center;fillColor=none;html=1;verticalAlign=middle;whiteSpace=wrap;rounded=0;fontSize=6;" parent="1" vertex="1">
          <mxGeometry x="360" y="60" width="40" height="20" as="geometry" />
        </mxCell>
        <mxCell id="LZvWHC5vLiDEv4ikFwLN-24" value="2020" style="text;strokeColor=none;align=center;fillColor=none;html=1;verticalAlign=middle;whiteSpace=wrap;rounded=0;fontSize=6;" parent="1" vertex="1">
          <mxGeometry x="400" y="60" width="40" height="20" as="geometry" />
        </mxCell>
        <mxCell id="LZvWHC5vLiDEv4ikFwLN-25" value="2021" style="text;strokeColor=none;align=center;fillColor=none;html=1;verticalAlign=middle;whiteSpace=wrap;rounded=0;fontSize=6;" parent="1" vertex="1">
          <mxGeometry x="440" y="60" width="40" height="20" as="geometry" />
        </mxCell>
        <mxCell id="LZvWHC5vLiDEv4ikFwLN-26" value="2022" style="text;strokeColor=none;align=center;fillColor=none;html=1;verticalAlign=middle;whiteSpace=wrap;rounded=0;fontSize=6;" parent="1" vertex="1">
          <mxGeometry x="480" y="60" width="40" height="20" as="geometry" />
        </mxCell>
        <mxCell id="LZvWHC5vLiDEv4ikFwLN-27" value="2023" style="text;strokeColor=none;align=center;fillColor=none;html=1;verticalAlign=middle;whiteSpace=wrap;rounded=0;fontSize=6;" parent="1" vertex="1">
          <mxGeometry x="520" y="60" width="40" height="20" as="geometry" />
        </mxCell>
        <mxCell id="LZvWHC5vLiDEv4ikFwLN-28" value="2024" style="text;strokeColor=none;align=center;fillColor=none;html=1;verticalAlign=middle;whiteSpace=wrap;rounded=0;fontSize=6;" parent="1" vertex="1">
          <mxGeometry x="560" y="60" width="40" height="20" as="geometry" />
        </mxCell>
        <mxCell id="LZvWHC5vLiDEv4ikFwLN-29" value="2025" style="text;strokeColor=none;align=center;fillColor=none;html=1;verticalAlign=middle;whiteSpace=wrap;rounded=0;fontSize=6;" parent="1" vertex="1">
          <mxGeometry x="600" y="60" width="40" height="20" as="geometry" />
        </mxCell>
        <mxCell id="LZvWHC5vLiDEv4ikFwLN-30" value="" style="edgeStyle=none;orthogonalLoop=1;jettySize=auto;html=1;rounded=0;startArrow=baseDash;startFill=0;endArrow=baseDash;endFill=0;fontSize=6;" parent="1" edge="1">
          <mxGeometry width="80" relative="1" as="geometry">
            <mxPoint x="320" y="80" as="sourcePoint" />
            <mxPoint x="360" y="80" as="targetPoint" />
            <Array as="points" />
          </mxGeometry>
        </mxCell>
        <mxCell id="LZvWHC5vLiDEv4ikFwLN-31" value="" style="edgeStyle=none;orthogonalLoop=1;jettySize=auto;html=1;rounded=0;startArrow=baseDash;startFill=0;endArrow=baseDash;endFill=0;fontSize=6;" parent="1" edge="1">
          <mxGeometry width="80" relative="1" as="geometry">
            <mxPoint x="360" y="80" as="sourcePoint" />
            <mxPoint x="400" y="80" as="targetPoint" />
            <Array as="points" />
          </mxGeometry>
        </mxCell>
        <mxCell id="LZvWHC5vLiDEv4ikFwLN-32" value="" style="edgeStyle=none;orthogonalLoop=1;jettySize=auto;html=1;rounded=0;startArrow=baseDash;startFill=0;endArrow=baseDash;endFill=0;fontSize=6;" parent="1" edge="1">
          <mxGeometry width="80" relative="1" as="geometry">
            <mxPoint x="400" y="80" as="sourcePoint" />
            <mxPoint x="440" y="80" as="targetPoint" />
            <Array as="points" />
          </mxGeometry>
        </mxCell>
        <mxCell id="LZvWHC5vLiDEv4ikFwLN-33" value="" style="edgeStyle=none;orthogonalLoop=1;jettySize=auto;html=1;rounded=0;startArrow=baseDash;startFill=0;endArrow=baseDash;endFill=0;fontSize=6;" parent="1" edge="1">
          <mxGeometry width="80" relative="1" as="geometry">
            <mxPoint x="440" y="80" as="sourcePoint" />
            <mxPoint x="480" y="80" as="targetPoint" />
            <Array as="points" />
          </mxGeometry>
        </mxCell>
        <mxCell id="LZvWHC5vLiDEv4ikFwLN-34" value="" style="edgeStyle=none;orthogonalLoop=1;jettySize=auto;html=1;rounded=0;startArrow=baseDash;startFill=0;endArrow=baseDash;endFill=0;fontSize=6;" parent="1" edge="1">
          <mxGeometry width="80" relative="1" as="geometry">
            <mxPoint x="480" y="80" as="sourcePoint" />
            <mxPoint x="520" y="80" as="targetPoint" />
            <Array as="points" />
          </mxGeometry>
        </mxCell>
        <mxCell id="LZvWHC5vLiDEv4ikFwLN-35" value="" style="edgeStyle=none;orthogonalLoop=1;jettySize=auto;html=1;rounded=0;startArrow=baseDash;startFill=0;endArrow=baseDash;endFill=0;fontSize=6;" parent="1" edge="1">
          <mxGeometry width="80" relative="1" as="geometry">
            <mxPoint x="520" y="80" as="sourcePoint" />
            <mxPoint x="560" y="80" as="targetPoint" />
            <Array as="points" />
          </mxGeometry>
        </mxCell>
        <mxCell id="LZvWHC5vLiDEv4ikFwLN-36" value="" style="edgeStyle=none;orthogonalLoop=1;jettySize=auto;html=1;rounded=0;startArrow=baseDash;startFill=0;endArrow=baseDash;endFill=0;fontSize=6;" parent="1" edge="1">
          <mxGeometry width="80" relative="1" as="geometry">
            <mxPoint x="560" y="80" as="sourcePoint" />
            <mxPoint x="600" y="80" as="targetPoint" />
            <Array as="points" />
          </mxGeometry>
        </mxCell>
        <mxCell id="LZvWHC5vLiDEv4ikFwLN-37" value="" style="edgeStyle=none;orthogonalLoop=1;jettySize=auto;html=1;rounded=0;startArrow=baseDash;startFill=0;endArrow=baseDash;endFill=0;fontSize=6;" parent="1" edge="1">
          <mxGeometry width="80" relative="1" as="geometry">
            <mxPoint x="600" y="80" as="sourcePoint" />
            <mxPoint x="640" y="80" as="targetPoint" />
            <Array as="points" />
          </mxGeometry>
        </mxCell>
        <mxCell id="LZvWHC5vLiDEv4ikFwLN-39" value="" style="edgeStyle=none;orthogonalLoop=1;jettySize=auto;html=1;rounded=0;startArrow=classic;startFill=1;strokeColor=#00CC00;fontColor=#00CC00;fontSize=6;startSize=3;endSize=3;" parent="1" edge="1">
          <mxGeometry width="80" relative="1" as="geometry">
            <mxPoint x="250" y="100" as="sourcePoint" />
            <mxPoint x="370" y="100" as="targetPoint" />
            <Array as="points" />
          </mxGeometry>
        </mxCell>
        <mxCell id="LZvWHC5vLiDEv4ikFwLN-40" value="&lt;font style=&quot;color: rgb(0, 204, 0);&quot;&gt;TEN&lt;/font&gt;" style="edgeLabel;html=1;align=center;verticalAlign=middle;resizable=0;points=[];fontSize=6;" parent="LZvWHC5vLiDEv4ikFwLN-39" vertex="1" connectable="0">
          <mxGeometry x="0.6667" y="-4" relative="1" as="geometry">
            <mxPoint x="-40" y="-4" as="offset" />
          </mxGeometry>
        </mxCell>
        <mxCell id="LZvWHC5vLiDEv4ikFwLN-41" value="" style="edgeStyle=none;orthogonalLoop=1;jettySize=auto;html=1;rounded=0;startArrow=classic;startFill=1;strokeColor=#00CC00;fontColor=#00CC00;fontSize=6;startSize=3;endSize=3;" parent="1" edge="1">
          <mxGeometry width="80" relative="1" as="geometry">
            <mxPoint x="370" y="100" as="sourcePoint" />
            <mxPoint x="440" y="100" as="targetPoint" />
            <Array as="points" />
          </mxGeometry>
        </mxCell>
        <mxCell id="LZvWHC5vLiDEv4ikFwLN-42" value="&lt;font style=&quot;color: rgb(0, 204, 0);&quot;&gt;ASTEC&lt;/font&gt;" style="edgeLabel;html=1;align=center;verticalAlign=middle;resizable=0;points=[];fontSize=6;" parent="LZvWHC5vLiDEv4ikFwLN-41" vertex="1" connectable="0">
          <mxGeometry x="0.6667" y="-4" relative="1" as="geometry">
            <mxPoint x="-24" y="-4" as="offset" />
          </mxGeometry>
        </mxCell>
        <mxCell id="LZvWHC5vLiDEv4ikFwLN-43" value="" style="edgeStyle=none;orthogonalLoop=1;jettySize=auto;html=1;rounded=0;startArrow=classic;startFill=1;strokeColor=#00CC00;fontColor=#00CC00;fontSize=6;startSize=3;endSize=3;" parent="1" edge="1">
          <mxGeometry width="80" relative="1" as="geometry">
            <mxPoint x="444" y="100" as="sourcePoint" />
            <mxPoint x="485" y="100" as="targetPoint" />
            <Array as="points" />
          </mxGeometry>
        </mxCell>
        <mxCell id="LZvWHC5vLiDEv4ikFwLN-44" value="&lt;font style=&quot;color: rgb(0, 204, 0);&quot;&gt;TGL&lt;/font&gt;" style="edgeLabel;html=1;align=center;verticalAlign=middle;resizable=0;points=[];fontSize=6;" parent="LZvWHC5vLiDEv4ikFwLN-43" vertex="1" connectable="0">
          <mxGeometry x="0.6667" y="-4" relative="1" as="geometry">
            <mxPoint x="-13" y="-4" as="offset" />
          </mxGeometry>
        </mxCell>
        <mxCell id="LZvWHC5vLiDEv4ikFwLN-46" value="" style="edgeStyle=none;orthogonalLoop=1;jettySize=auto;html=1;rounded=0;startArrow=classic;startFill=1;strokeColor=#00CC00;fontColor=#00CC00;fontSize=6;startSize=3;endSize=3;" parent="1" edge="1">
          <mxGeometry width="80" relative="1" as="geometry">
            <mxPoint x="490" y="100" as="sourcePoint" />
            <mxPoint x="539" y="100" as="targetPoint" />
            <Array as="points" />
          </mxGeometry>
        </mxCell>
        <mxCell id="LZvWHC5vLiDEv4ikFwLN-47" value="&lt;font style=&quot;color: rgb(0, 204, 0);&quot;&gt;eSOL&lt;/font&gt;" style="edgeLabel;html=1;align=center;verticalAlign=middle;resizable=0;points=[];fontSize=6;" parent="LZvWHC5vLiDEv4ikFwLN-46" vertex="1" connectable="0">
          <mxGeometry x="0.6667" y="-4" relative="1" as="geometry">
            <mxPoint x="-13" y="-4" as="offset" />
          </mxGeometry>
        </mxCell>
        <mxCell id="LZvWHC5vLiDEv4ikFwLN-50" value="" style="edgeStyle=none;orthogonalLoop=1;jettySize=auto;html=1;rounded=0;startArrow=classic;startFill=1;strokeColor=#00CC00;fontColor=#00CC00;fontSize=6;startSize=3;endSize=3;" parent="1" edge="1">
          <mxGeometry width="80" relative="1" as="geometry">
            <mxPoint x="550" y="100" as="sourcePoint" />
            <mxPoint x="610" y="100" as="targetPoint" />
            <Array as="points" />
          </mxGeometry>
        </mxCell>
        <mxCell id="LZvWHC5vLiDEv4ikFwLN-51" value="&lt;font style=&quot;color: rgb(0, 204, 0);&quot;&gt;ROBOCIP&lt;/font&gt;" style="edgeLabel;html=1;align=center;verticalAlign=middle;resizable=0;points=[];fontSize=6;" parent="LZvWHC5vLiDEv4ikFwLN-50" vertex="1" connectable="0">
          <mxGeometry x="0.6667" y="-4" relative="1" as="geometry">
            <mxPoint x="-20" y="-4" as="offset" />
          </mxGeometry>
        </mxCell>
        <mxCell id="LZvWHC5vLiDEv4ikFwLN-52" value="▲独立" style="text;strokeColor=none;align=center;fillColor=none;html=1;verticalAlign=middle;whiteSpace=wrap;rounded=0;fontSize=6;fontColor=#00CC00;" parent="1" vertex="1">
          <mxGeometry x="361" y="103" width="30" height="10" as="geometry" />
        </mxCell>
        <mxCell id="LZvWHC5vLiDEv4ikFwLN-54" value="" style="edgeStyle=none;orthogonalLoop=1;jettySize=auto;html=1;rounded=0;startArrow=classic;startFill=1;strokeColor=#B3B3B3;fontColor=#E6E6E6;fontSize=6;endSize=3;startSize=3;" parent="1" edge="1">
          <mxGeometry width="80" relative="1" as="geometry">
            <mxPoint x="258" y="120" as="sourcePoint" />
            <mxPoint x="300" y="120" as="targetPoint" />
            <Array as="points" />
          </mxGeometry>
        </mxCell>
        <mxCell id="LZvWHC5vLiDEv4ikFwLN-55" value="&lt;font style=&quot;color: rgb(179, 179, 179);&quot;&gt;うつ？&lt;/font&gt;" style="edgeLabel;html=1;align=center;verticalAlign=middle;resizable=0;points=[];fontSize=6;" parent="LZvWHC5vLiDEv4ikFwLN-54" vertex="1" connectable="0">
          <mxGeometry x="0.6667" y="-4" relative="1" as="geometry">
            <mxPoint x="-15" y="1" as="offset" />
          </mxGeometry>
        </mxCell>
        <mxCell id="LZvWHC5vLiDEv4ikFwLN-59" value="" style="edgeStyle=none;orthogonalLoop=1;jettySize=auto;html=1;rounded=0;startArrow=classic;startFill=1;strokeColor=#B3B3B3;fontColor=#E6E6E6;fontSize=6;endSize=3;startSize=3;" parent="1" edge="1">
          <mxGeometry width="80" relative="1" as="geometry">
            <mxPoint x="340" y="120" as="sourcePoint" />
            <mxPoint x="370" y="120" as="targetPoint" />
            <Array as="points" />
          </mxGeometry>
        </mxCell>
        <mxCell id="LZvWHC5vLiDEv4ikFwLN-60" value="&lt;font style=&quot;color: rgb(179, 179, 179);&quot;&gt;うつ？&lt;/font&gt;" style="edgeLabel;html=1;align=center;verticalAlign=middle;resizable=0;points=[];fontSize=6;" parent="LZvWHC5vLiDEv4ikFwLN-59" vertex="1" connectable="0">
          <mxGeometry x="0.6667" y="-4" relative="1" as="geometry">
            <mxPoint x="-10" y="1" as="offset" />
          </mxGeometry>
        </mxCell>
        <mxCell id="LZvWHC5vLiDEv4ikFwLN-61" value="" style="edgeStyle=none;orthogonalLoop=1;jettySize=auto;html=1;rounded=0;startArrow=classic;startFill=1;strokeColor=#00CCCC;fontColor=#00CC00;fontSize=6;startSize=3;endSize=3;" parent="1" edge="1">
          <mxGeometry width="80" relative="1" as="geometry">
            <mxPoint x="249" y="140" as="sourcePoint" />
            <mxPoint x="320" y="140" as="targetPoint" />
            <Array as="points" />
          </mxGeometry>
        </mxCell>
        <mxCell id="LZvWHC5vLiDEv4ikFwLN-62" value="&lt;font style=&quot;color: rgb(0, 204, 204);&quot;&gt;兵庫&lt;/font&gt;" style="edgeLabel;html=1;align=center;verticalAlign=middle;resizable=0;points=[];fontSize=6;" parent="LZvWHC5vLiDEv4ikFwLN-61" vertex="1" connectable="0">
          <mxGeometry x="0.6667" y="-4" relative="1" as="geometry">
            <mxPoint x="-18" y="-4" as="offset" />
          </mxGeometry>
        </mxCell>
        <mxCell id="LZvWHC5vLiDEv4ikFwLN-64" value="" style="edgeStyle=none;orthogonalLoop=1;jettySize=auto;html=1;rounded=0;startArrow=classic;startFill=1;strokeColor=#00CCCC;fontColor=#00CC00;fontSize=6;startSize=3;endSize=3;" parent="1" edge="1">
          <mxGeometry width="80" relative="1" as="geometry">
            <mxPoint x="320" y="140" as="sourcePoint" />
            <mxPoint x="460" y="140" as="targetPoint" />
            <Array as="points" />
          </mxGeometry>
        </mxCell>
        <mxCell id="LZvWHC5vLiDEv4ikFwLN-65" value="&lt;font style=&quot;color: rgb(0, 204, 204);&quot;&gt;立花&lt;/font&gt;" style="edgeLabel;html=1;align=center;verticalAlign=middle;resizable=0;points=[];fontSize=6;" parent="LZvWHC5vLiDEv4ikFwLN-64" vertex="1" connectable="0">
          <mxGeometry x="0.6667" y="-4" relative="1" as="geometry">
            <mxPoint x="-44" y="-4" as="offset" />
          </mxGeometry>
        </mxCell>
        <mxCell id="LZvWHC5vLiDEv4ikFwLN-66" value="" style="edgeStyle=none;orthogonalLoop=1;jettySize=auto;html=1;rounded=0;startArrow=classic;startFill=1;strokeColor=#00CCCC;fontColor=#00CC00;fontSize=6;startSize=3;endSize=3;" parent="1" edge="1">
          <mxGeometry width="80" relative="1" as="geometry">
            <mxPoint x="460" y="140" as="sourcePoint" />
            <mxPoint x="600" y="140" as="targetPoint" />
            <Array as="points" />
          </mxGeometry>
        </mxCell>
        <mxCell id="LZvWHC5vLiDEv4ikFwLN-67" value="&lt;font style=&quot;color: rgb(0, 204, 204);&quot;&gt;西神南&lt;/font&gt;" style="edgeLabel;html=1;align=center;verticalAlign=middle;resizable=0;points=[];fontSize=6;" parent="LZvWHC5vLiDEv4ikFwLN-66" vertex="1" connectable="0">
          <mxGeometry x="0.6667" y="-4" relative="1" as="geometry">
            <mxPoint x="-44" y="-4" as="offset" />
          </mxGeometry>
        </mxCell>
        <mxCell id="LZvWHC5vLiDEv4ikFwLN-69" value="" style="edgeStyle=none;orthogonalLoop=1;jettySize=auto;html=1;rounded=0;startArrow=classic;startFill=1;strokeColor=#00CCCC;fontColor=#00CC00;fontSize=6;startSize=3;endSize=3;" parent="1" edge="1">
          <mxGeometry width="80" relative="1" as="geometry">
            <mxPoint x="600" y="140" as="sourcePoint" />
            <mxPoint x="610" y="140" as="targetPoint" />
            <Array as="points" />
          </mxGeometry>
        </mxCell>
        <mxCell id="LZvWHC5vLiDEv4ikFwLN-70" value="&lt;font style=&quot;color: rgb(0, 204, 204);&quot;&gt;狩場台&lt;/font&gt;" style="edgeLabel;html=1;align=center;verticalAlign=middle;resizable=0;points=[];fontSize=6;" parent="LZvWHC5vLiDEv4ikFwLN-69" vertex="1" connectable="0">
          <mxGeometry x="0.6667" y="-4" relative="1" as="geometry">
            <mxPoint x="-11" y="-14" as="offset" />
          </mxGeometry>
        </mxCell>
        <mxCell id="LZvWHC5vLiDEv4ikFwLN-71" value="" style="edgeStyle=none;orthogonalLoop=1;jettySize=auto;html=1;rounded=0;startArrow=classic;startFill=1;strokeColor=#FF9999;fontColor=#FF9999;fontSize=6;startSize=3;endSize=3;" parent="1" edge="1">
          <mxGeometry width="80" relative="1" as="geometry">
            <mxPoint x="300" y="160" as="sourcePoint" />
            <mxPoint x="610" y="160" as="targetPoint" />
            <Array as="points" />
          </mxGeometry>
        </mxCell>
        <mxCell id="LZvWHC5vLiDEv4ikFwLN-72" value="&lt;font style=&quot;color: rgb(255, 153, 153);&quot;&gt;友香&lt;/font&gt;" style="edgeLabel;html=1;align=center;verticalAlign=middle;resizable=0;points=[];fontSize=6;" parent="LZvWHC5vLiDEv4ikFwLN-71" vertex="1" connectable="0">
          <mxGeometry x="0.6667" y="-4" relative="1" as="geometry">
            <mxPoint x="-88" y="-4" as="offset" />
          </mxGeometry>
        </mxCell>
        <mxCell id="LZvWHC5vLiDEv4ikFwLN-75" value="&lt;font style=&quot;color: rgb(255, 153, 153);&quot;&gt;▲同棲&lt;/font&gt;" style="text;strokeColor=none;align=center;fillColor=none;html=1;verticalAlign=middle;whiteSpace=wrap;rounded=0;fontSize=6;fontColor=#00CC00;" parent="1" vertex="1">
          <mxGeometry x="311" y="170" width="30" height="10" as="geometry" />
        </mxCell>
        <mxCell id="LZvWHC5vLiDEv4ikFwLN-76" value="&lt;font style=&quot;color: rgb(255, 153, 153);&quot;&gt;▲入籍&lt;/font&gt;" style="text;strokeColor=none;align=center;fillColor=none;html=1;verticalAlign=middle;whiteSpace=wrap;rounded=0;fontSize=6;fontColor=#00CC00;" parent="1" vertex="1">
          <mxGeometry x="375" y="170" width="30" height="10" as="geometry" />
        </mxCell>
        <mxCell id="LZvWHC5vLiDEv4ikFwLN-77" value="&lt;font style=&quot;color: rgb(255, 153, 153);&quot;&gt;▲ゆず出産&lt;/font&gt;" style="text;strokeColor=none;align=center;fillColor=none;html=1;verticalAlign=middle;whiteSpace=wrap;rounded=0;fontSize=6;fontColor=#00CC00;" parent="1" vertex="1">
          <mxGeometry x="463" y="170" width="39" height="10" as="geometry" />
        </mxCell>
        <mxCell id="LZvWHC5vLiDEv4ikFwLN-78" value="&lt;font style=&quot;color: rgb(255, 153, 153);&quot;&gt;▲りく出産&lt;/font&gt;" style="text;strokeColor=none;align=center;fillColor=none;html=1;verticalAlign=middle;whiteSpace=wrap;rounded=0;fontSize=6;fontColor=#00CC00;" parent="1" vertex="1">
          <mxGeometry x="538" y="170" width="39" height="10" as="geometry" />
        </mxCell>
        <mxCell id="LZvWHC5vLiDEv4ikFwLN-79" value="2015" style="text;strokeColor=none;align=center;fillColor=none;html=1;verticalAlign=middle;whiteSpace=wrap;rounded=0;fontSize=6;" parent="1" vertex="1">
          <mxGeometry x="200" y="60" width="40" height="20" as="geometry" />
        </mxCell>
        <mxCell id="LZvWHC5vLiDEv4ikFwLN-80" value="2014" style="text;strokeColor=none;align=center;fillColor=none;html=1;verticalAlign=middle;whiteSpace=wrap;rounded=0;fontSize=6;" parent="1" vertex="1">
          <mxGeometry x="160" y="60" width="40" height="20" as="geometry" />
        </mxCell>
        <mxCell id="LZvWHC5vLiDEv4ikFwLN-81" value="2013" style="text;strokeColor=none;align=center;fillColor=none;html=1;verticalAlign=middle;whiteSpace=wrap;rounded=0;fontSize=6;" parent="1" vertex="1">
          <mxGeometry x="120" y="60" width="40" height="20" as="geometry" />
        </mxCell>
        <mxCell id="LZvWHC5vLiDEv4ikFwLN-82" value="2012" style="text;strokeColor=none;align=center;fillColor=none;html=1;verticalAlign=middle;whiteSpace=wrap;rounded=0;fontSize=6;" parent="1" vertex="1">
          <mxGeometry x="80" y="60" width="40" height="20" as="geometry" />
        </mxCell>
        <mxCell id="LZvWHC5vLiDEv4ikFwLN-83" value="2011" style="text;strokeColor=none;align=center;fillColor=none;html=1;verticalAlign=middle;whiteSpace=wrap;rounded=0;fontSize=6;" parent="1" vertex="1">
          <mxGeometry x="40" y="60" width="40" height="20" as="geometry" />
        </mxCell>
        <mxCell id="LZvWHC5vLiDEv4ikFwLN-84" value="" style="edgeStyle=none;orthogonalLoop=1;jettySize=auto;html=1;rounded=0;startArrow=baseDash;startFill=0;endArrow=baseDash;endFill=0;fontSize=6;" parent="1" edge="1">
          <mxGeometry width="80" relative="1" as="geometry">
            <mxPoint x="200" y="80" as="sourcePoint" />
            <mxPoint x="240" y="80" as="targetPoint" />
            <Array as="points" />
          </mxGeometry>
        </mxCell>
        <mxCell id="LZvWHC5vLiDEv4ikFwLN-85" value="" style="edgeStyle=none;orthogonalLoop=1;jettySize=auto;html=1;rounded=0;startArrow=baseDash;startFill=0;endArrow=baseDash;endFill=0;fontSize=6;" parent="1" edge="1">
          <mxGeometry width="80" relative="1" as="geometry">
            <mxPoint x="160" y="80" as="sourcePoint" />
            <mxPoint x="200" y="80" as="targetPoint" />
            <Array as="points" />
          </mxGeometry>
        </mxCell>
        <mxCell id="LZvWHC5vLiDEv4ikFwLN-86" value="" style="edgeStyle=none;orthogonalLoop=1;jettySize=auto;html=1;rounded=0;startArrow=baseDash;startFill=0;endArrow=baseDash;endFill=0;fontSize=6;" parent="1" edge="1">
          <mxGeometry width="80" relative="1" as="geometry">
            <mxPoint x="120" y="80" as="sourcePoint" />
            <mxPoint x="160" y="80" as="targetPoint" />
            <Array as="points" />
          </mxGeometry>
        </mxCell>
        <mxCell id="LZvWHC5vLiDEv4ikFwLN-87" value="" style="edgeStyle=none;orthogonalLoop=1;jettySize=auto;html=1;rounded=0;startArrow=baseDash;startFill=0;endArrow=baseDash;endFill=0;fontSize=6;" parent="1" edge="1">
          <mxGeometry width="80" relative="1" as="geometry">
            <mxPoint x="80" y="80" as="sourcePoint" />
            <mxPoint x="120" y="80" as="targetPoint" />
            <Array as="points" />
          </mxGeometry>
        </mxCell>
        <mxCell id="LZvWHC5vLiDEv4ikFwLN-88" value="" style="edgeStyle=none;orthogonalLoop=1;jettySize=auto;html=1;rounded=0;startArrow=baseDash;startFill=0;endArrow=baseDash;endFill=0;fontSize=6;" parent="1" edge="1">
          <mxGeometry width="80" relative="1" as="geometry">
            <mxPoint x="40" y="80" as="sourcePoint" />
            <mxPoint x="80" y="80" as="targetPoint" />
            <Array as="points" />
          </mxGeometry>
        </mxCell>
        <mxCell id="LZvWHC5vLiDEv4ikFwLN-89" value="" style="edgeStyle=none;orthogonalLoop=1;jettySize=auto;html=1;rounded=0;startArrow=classic;startFill=1;strokeColor=#00CC00;fontColor=#00CC00;fontSize=6;startSize=3;endSize=3;" parent="1" edge="1">
          <mxGeometry width="80" relative="1" as="geometry">
            <mxPoint x="50" y="100" as="sourcePoint" />
            <mxPoint x="250" y="100" as="targetPoint" />
            <Array as="points" />
          </mxGeometry>
        </mxCell>
        <mxCell id="LZvWHC5vLiDEv4ikFwLN-90" value="&lt;font style=&quot;color: rgb(0, 204, 0);&quot;&gt;DTS&lt;/font&gt;" style="edgeLabel;html=1;align=center;verticalAlign=middle;resizable=0;points=[];fontSize=6;" parent="LZvWHC5vLiDEv4ikFwLN-89" vertex="1" connectable="0">
          <mxGeometry x="0.6667" y="-4" relative="1" as="geometry">
            <mxPoint x="-57" y="-4" as="offset" />
          </mxGeometry>
        </mxCell>
        <mxCell id="LZvWHC5vLiDEv4ikFwLN-91" value="" style="edgeStyle=none;orthogonalLoop=1;jettySize=auto;html=1;rounded=0;startArrow=classic;startFill=1;strokeColor=#00CCCC;fontColor=#00CC00;fontSize=6;startSize=3;endSize=3;" parent="1" edge="1">
          <mxGeometry width="80" relative="1" as="geometry">
            <mxPoint x="50" y="139" as="sourcePoint" />
            <mxPoint x="220" y="140" as="targetPoint" />
            <Array as="points" />
          </mxGeometry>
        </mxCell>
        <mxCell id="LZvWHC5vLiDEv4ikFwLN-92" value="&lt;font color=&quot;#00cccc&quot;&gt;鶴見&lt;/font&gt;" style="edgeLabel;html=1;align=center;verticalAlign=middle;resizable=0;points=[];fontSize=6;" parent="LZvWHC5vLiDEv4ikFwLN-91" vertex="1" connectable="0">
          <mxGeometry x="0.6667" y="-4" relative="1" as="geometry">
            <mxPoint x="-45" y="-4" as="offset" />
          </mxGeometry>
        </mxCell>
        <mxCell id="LZvWHC5vLiDEv4ikFwLN-95" value="" style="edgeStyle=none;orthogonalLoop=1;jettySize=auto;html=1;rounded=0;startArrow=classic;startFill=1;strokeColor=#00CCCC;fontColor=#00CC00;fontSize=6;startSize=3;endSize=3;" parent="1" edge="1">
          <mxGeometry width="80" relative="1" as="geometry">
            <mxPoint x="220" y="140" as="sourcePoint" />
            <mxPoint x="240" y="140" as="targetPoint" />
            <Array as="points" />
          </mxGeometry>
        </mxCell>
        <mxCell id="LZvWHC5vLiDEv4ikFwLN-96" value="&lt;font color=&quot;#00cccc&quot;&gt;刈谷&lt;/font&gt;" style="edgeLabel;html=1;align=center;verticalAlign=middle;resizable=0;points=[];fontSize=6;" parent="LZvWHC5vLiDEv4ikFwLN-95" vertex="1" connectable="0">
          <mxGeometry x="0.6667" y="-4" relative="1" as="geometry">
            <mxPoint x="-5" y="-14" as="offset" />
          </mxGeometry>
        </mxCell>
        <mxCell id="LZvWHC5vLiDEv4ikFwLN-101" value="" style="edgeStyle=none;orthogonalLoop=1;jettySize=auto;html=1;rounded=0;startArrow=classic;startFill=1;strokeColor=#00CCCC;fontColor=#00CC00;fontSize=6;startSize=3;endSize=3;" parent="1" edge="1">
          <mxGeometry width="80" relative="1" as="geometry">
            <mxPoint x="240" y="140" as="sourcePoint" />
            <mxPoint x="250" y="140" as="targetPoint" />
            <Array as="points" />
          </mxGeometry>
        </mxCell>
        <mxCell id="LZvWHC5vLiDEv4ikFwLN-102" value="&lt;font color=&quot;#00cccc&quot;&gt;鶴見&lt;/font&gt;" style="edgeLabel;html=1;align=center;verticalAlign=middle;resizable=0;points=[];fontSize=6;" parent="LZvWHC5vLiDEv4ikFwLN-101" vertex="1" connectable="0">
          <mxGeometry x="0.6667" y="-4" relative="1" as="geometry">
            <mxPoint x="-5" y="6" as="offset" />
          </mxGeometry>
        </mxCell>
        <mxCell id="LZvWHC5vLiDEv4ikFwLN-103" value="" style="edgeStyle=none;orthogonalLoop=1;jettySize=auto;html=1;rounded=0;startArrow=none;startFill=0;endArrow=none;endFill=0;fontSize=6;strokeWidth=2;" parent="1" edge="1">
          <mxGeometry width="80" relative="1" as="geometry">
            <mxPoint x="40" y="70" as="sourcePoint" />
            <mxPoint x="40" y="90" as="targetPoint" />
            <Array as="points" />
          </mxGeometry>
        </mxCell>
        <mxCell id="LZvWHC5vLiDEv4ikFwLN-104" value="" style="edgeStyle=none;orthogonalLoop=1;jettySize=auto;html=1;rounded=0;startArrow=none;startFill=0;endArrow=none;endFill=0;fontSize=6;strokeWidth=2;" parent="1" edge="1">
          <mxGeometry width="80" relative="1" as="geometry">
            <mxPoint x="239.60000000000002" y="70" as="sourcePoint" />
            <mxPoint x="239.60000000000002" y="90" as="targetPoint" />
            <Array as="points" />
          </mxGeometry>
        </mxCell>
        <mxCell id="LZvWHC5vLiDEv4ikFwLN-105" value="" style="edgeStyle=none;orthogonalLoop=1;jettySize=auto;html=1;rounded=0;startArrow=none;startFill=0;endArrow=none;endFill=0;fontSize=6;strokeWidth=2;" parent="1" edge="1">
          <mxGeometry width="80" relative="1" as="geometry">
            <mxPoint x="440" y="70" as="sourcePoint" />
            <mxPoint x="440" y="90" as="targetPoint" />
            <Array as="points" />
          </mxGeometry>
        </mxCell>
        <mxCell id="LZvWHC5vLiDEv4ikFwLN-106" value="" style="edgeStyle=none;orthogonalLoop=1;jettySize=auto;html=1;rounded=0;startArrow=none;startFill=0;endArrow=none;endFill=0;fontSize=6;strokeWidth=2;" parent="1" edge="1">
          <mxGeometry width="80" relative="1" as="geometry">
            <mxPoint x="640" y="70" as="sourcePoint" />
            <mxPoint x="640" y="90" as="targetPoint" />
            <Array as="points" />
          </mxGeometry>
        </mxCell>
      </root>
    </mxGraphModel>
  </diagram>
</mxfile>
